<svg id="visual" viewBox="0 0 900 900" width="900" height="900" xmlns="http://www.w3.org/2000/svg" xmlns:xlink="http://www.w3.org/1999/xlink" version="1.1"><rect x="0" y="0" width="900" height="900" fill="#e036a2"></rect><path d="M0 379L129 381L257 423L386 419L514 342L643 410L771 252L900 423L900 901L771 901L643 901L514 901L386 901L257 901L129 901L0 901Z" fill="#eedaca"></path><path d="M0 510L129 540L257 374L386 345L514 449L643 493L771 561L900 496L900 901L771 901L643 901L514 901L386 901L257 901L129 901L0 901Z" fill="#b5b79d"></path><path d="M0 470L129 555L257 529L386 519L514 492L643 518L771 585L900 645L900 901L771 901L643 901L514 901L386 901L257 901L129 901L0 901Z" fill="#769582"></path><path d="M0 591L129 662L257 700L386 588L514 704L643 615L771 713L900 615L900 901L771 901L643 901L514 901L386 901L257 901L129 901L0 901Z" fill="#397274"></path><path d="M0 755L129 829L257 798L386 755L514 816L643 788L771 788L900 763L900 901L771 901L643 901L514 901L386 901L257 901L129 901L0 901Z" fill="#0a4c65"></path></svg>