<svg id="visual" viewBox="0 0 900 900" width="900" height="900" xmlns="http://www.w3.org/2000/svg" xmlns:xlink="http://www.w3.org/1999/xlink" version="1.1"><path d="M0 82L12.5 83.5C25 85 50 88 75 94C100 100 125 109 150 116.5C175 124 200 130 225 131.5C250 133 275 130 300 116.5C325 103 350 79 375 82C400 85 425 115 450 113.5C475 112 500 79 525 79C550 79 575 112 600 107.5C625 103 650 61 675 55C700 49 725 79 750 95.5C775 112 800 115 825 101.5C850 88 875 58 887.5 43L900 28L900 0L887.5 0C875 0 850 0 825 0C800 0 775 0 750 0C725 0 700 0 675 0C650 0 625 0 600 0C575 0 550 0 525 0C500 0 475 0 450 0C425 0 400 0 375 0C350 0 325 0 300 0C275 0 250 0 225 0C200 0 175 0 150 0C125 0 100 0 75 0C50 0 25 0 12.5 0L0 0Z" fill="#115a97"></path><path d="M0 109L12.5 115C25 121 50 133 75 139C100 145 125 145 150 152.5C175 160 200 175 225 175C250 175 275 160 300 143.5C325 127 350 109 375 116.5C400 124 425 157 450 155.5C475 154 500 118 525 121C550 124 575 166 600 166C625 166 650 124 675 118C700 112 725 142 750 155.5C775 169 800 166 825 145C850 124 875 85 887.5 65.5L900 46L900 26L887.5 41C875 56 850 86 825 99.5C800 113 775 110 750 93.5C725 77 700 47 675 53C650 59 625 101 600 105.5C575 110 550 77 525 77C500 77 475 110 450 111.5C425 113 400 83 375 80C350 77 325 101 300 114.5C275 128 250 131 225 129.5C200 128 175 122 150 114.5C125 107 100 98 75 92C50 86 25 83 12.5 81.5L0 80Z" fill="#124579"></path><path d="M0 127L12.5 143.5C25 160 50 193 75 211C100 229 125 232 150 238C175 244 200 253 225 245.5C250 238 275 214 300 194.5C325 175 350 160 375 166C400 172 425 199 450 202C475 205 500 184 525 194.5C550 205 575 247 600 248.5C625 250 650 211 675 197.5C700 184 725 196 750 208C775 220 800 232 825 212.5C850 193 875 142 887.5 116.5L900 91L900 44L887.5 63.5C875 83 850 122 825 143C800 164 775 167 750 153.5C725 140 700 110 675 116C650 122 625 164 600 164C575 164 550 122 525 119C500 116 475 152 450 153.5C425 155 400 122 375 114.5C350 107 325 125 300 141.5C275 158 250 173 225 173C200 173 175 158 150 150.5C125 143 100 143 75 137C50 131 25 119 12.5 113L0 107Z" fill="#0e325c"></path><path d="M0 244L12.5 266.5C25 289 50 334 75 361C100 388 125 397 150 388C175 379 200 352 225 343C250 334 275 343 300 325C325 307 350 262 375 253C400 244 425 271 450 307C475 343 500 388 525 431.5C550 475 575 517 600 491.5C625 466 650 373 675 352C700 331 725 382 750 385C775 388 800 343 825 305.5C850 268 875 238 887.5 223L900 208L900 89L887.5 114.5C875 140 850 191 825 210.5C800 230 775 218 750 206C725 194 700 182 675 195.5C650 209 625 248 600 246.5C575 245 550 203 525 192.5C500 182 475 203 450 200C425 197 400 170 375 164C350 158 325 173 300 192.5C275 212 250 236 225 243.5C200 251 175 242 150 236C125 230 100 227 75 209C50 191 25 158 12.5 141.5L0 125Z" fill="#082041"></path><path d="M0 442L12.5 455.5C25 469 50 496 75 523C100 550 125 577 150 572.5C175 568 200 532 225 506.5C250 481 275 466 300 475C325 484 350 517 375 527.5C400 538 425 526 450 538C475 550 500 586 525 604C550 622 575 622 600 608.5C625 595 650 568 675 554.5C700 541 725 541 750 529C775 517 800 493 825 470.5C850 448 875 427 887.5 416.5L900 406L900 206L887.5 221C875 236 850 266 825 303.5C800 341 775 386 750 383C725 380 700 329 675 350C650 371 625 464 600 489.5C575 515 550 473 525 429.5C500 386 475 341 450 305C425 269 400 242 375 251C350 260 325 305 300 323C275 341 250 332 225 341C200 350 175 377 150 386C125 395 100 386 75 359C50 332 25 287 12.5 264.5L0 242Z" fill="#020d28"></path><path d="M0 532L12.5 541C25 550 50 568 75 586C100 604 125 622 150 613C175 604 200 568 225 550C250 532 275 532 300 542.5C325 553 350 574 375 572.5C400 571 425 547 450 554.5C475 562 500 601 525 626.5C550 652 575 664 600 650.5C625 637 650 598 675 581.5C700 565 725 571 750 568C775 565 800 553 825 533.5C850 514 875 487 887.5 473.5L900 460L900 404L887.5 414.5C875 425 850 446 825 468.5C800 491 775 515 750 527C725 539 700 539 675 552.5C650 566 625 593 600 606.5C575 620 550 620 525 602C500 584 475 548 450 536C425 524 400 536 375 525.5C350 515 325 482 300 473C275 464 250 479 225 504.5C200 530 175 566 150 570.5C125 575 100 548 75 521C50 494 25 467 12.5 453.5L0 440Z" fill="#020d28"></path><path d="M0 613L12.5 622C25 631 50 649 75 667C100 685 125 703 150 694C175 685 200 649 225 629.5C250 610 275 607 300 616C325 625 350 646 375 644.5C400 643 425 619 450 623.5C475 628 500 661 525 688C550 715 575 736 600 728.5C625 721 650 685 675 667C700 649 725 649 750 644.5C775 640 800 631 825 614.5C850 598 875 574 887.5 562L900 550L900 458L887.5 471.5C875 485 850 512 825 531.5C800 551 775 563 750 566C725 569 700 563 675 579.5C650 596 625 635 600 648.5C575 662 550 650 525 624.5C500 599 475 560 450 552.5C425 545 400 569 375 570.5C350 572 325 551 300 540.5C275 530 250 530 225 548C200 566 175 602 150 611C125 620 100 602 75 584C50 566 25 548 12.5 539L0 530Z" fill="#020d28"></path><path d="M0 748L12.5 749.5C25 751 50 754 75 757C100 760 125 763 150 764.5C175 766 200 766 225 758.5C250 751 275 736 300 728.5C325 721 350 721 375 728.5C400 736 425 751 450 760C475 769 500 772 525 781C550 790 575 805 600 797.5C625 790 650 760 675 757C700 754 725 778 750 782.5C775 787 800 772 825 752.5C850 733 875 709 887.5 697L900 685L900 548L887.5 560C875 572 850 596 825 612.5C800 629 775 638 750 642.5C725 647 700 647 675 665C650 683 625 719 600 726.5C575 734 550 713 525 686C500 659 475 626 450 621.5C425 617 400 641 375 642.5C350 644 325 623 300 614C275 605 250 608 225 627.5C200 647 175 683 150 692C125 701 100 683 75 665C50 647 25 629 12.5 620L0 611Z" fill="#082041"></path><path d="M0 757L12.5 767.5C25 778 50 799 75 809.5C100 820 125 820 150 815.5C175 811 200 802 225 797.5C250 793 275 793 300 787C325 781 350 769 375 770.5C400 772 425 787 450 799C475 811 500 820 525 824.5C550 829 575 829 600 821.5C625 814 650 799 675 802C700 805 725 826 750 830.5C775 835 800 823 825 802C850 781 875 751 887.5 736L900 721L900 683L887.5 695C875 707 850 731 825 750.5C800 770 775 785 750 780.5C725 776 700 752 675 755C650 758 625 788 600 795.5C575 803 550 788 525 779C500 770 475 767 450 758C425 749 400 734 375 726.5C350 719 325 719 300 726.5C275 734 250 749 225 756.5C200 764 175 764 150 762.5C125 761 100 758 75 755C50 752 25 749 12.5 747.5L0 746Z" fill="#0e325c"></path><path d="M0 883L12.5 875.5C25 868 50 853 75 845.5C100 838 125 838 150 844C175 850 200 862 225 865C250 868 275 862 300 862C325 862 350 868 375 874C400 880 425 886 450 889C475 892 500 892 525 889C550 886 575 880 600 874C625 868 650 862 675 863.5C700 865 725 874 750 880C775 886 800 889 825 880C850 871 875 850 887.5 839.5L900 829L900 719L887.5 734C875 749 850 779 825 800C800 821 775 833 750 828.5C725 824 700 803 675 800C650 797 625 812 600 819.5C575 827 550 827 525 822.5C500 818 475 809 450 797C425 785 400 770 375 768.5C350 767 325 779 300 785C275 791 250 791 225 795.5C200 800 175 809 150 813.5C125 818 100 818 75 807.5C50 797 25 776 12.5 765.5L0 755Z" fill="#124579"></path><path d="M0 901L12.5 901C25 901 50 901 75 901C100 901 125 901 150 901C175 901 200 901 225 901C250 901 275 901 300 901C325 901 350 901 375 901C400 901 425 901 450 901C475 901 500 901 525 901C550 901 575 901 600 901C625 901 650 901 675 901C700 901 725 901 750 901C775 901 800 901 825 901C850 901 875 901 887.5 901L900 901L900 827L887.5 837.5C875 848 850 869 825 878C800 887 775 884 750 878C725 872 700 863 675 861.5C650 860 625 866 600 872C575 878 550 884 525 887C500 890 475 890 450 887C425 884 400 878 375 872C350 866 325 860 300 860C275 860 250 866 225 863C200 860 175 848 150 842C125 836 100 836 75 843.5C50 851 25 866 12.5 873.5L0 881Z" fill="#115a97"></path></svg>