<?xml version="1.0" standalone="no"?>
<!DOCTYPE svg PUBLIC "-//W3C//DTD SVG 20010904//EN"
 "http://www.w3.org/TR/2001/REC-SVG-20010904/DTD/svg10.dtd">
<svg version="1.0" xmlns="http://www.w3.org/2000/svg"
 width="333.000000pt" height="333.000000pt" viewBox="0 0 333.000000 333.000000"
 preserveAspectRatio="xMidYMid meet">

<g transform="translate(0.000000,333.000000) scale(0.100000,-0.100000)"
fill="#000000" stroke="none">
<path d="M0 3015 l0 -315 40 0 40 0 0 -105 0 -105 -40 0 -40 0 0 -100 0 -100
40 0 40 0 0 100 0 100 100 0 100 0 0 -100 0 -100 110 0 110 0 0 100 0 100 100
0 100 0 0 105 0 104 103 3 102 3 5 100 5 100 830 0 830 0 3 -102 3 -103 99 0
99 0 3 -102 3 -103 103 -3 102 -3 0 -99 0 -100 105 0 105 0 0 100 0 100 65 0
65 0 0 105 0 105 -65 0 -66 0 3 103 3 102 63 3 62 3 0 209 0 210 -1665 0
-1665 0 0 -315z m281 -212 l-2 -103 105 0 106 0 0 -105 0 -105 -105 0 -105 0
0 105 0 105 -100 0 -100 0 0 105 0 106 101 -3 102 -3 -2 -102z m419 2 l0 -105
-99 0 -100 0 -3 98 c-2 53 -2 100 0 105 2 4 48 7 103 7 l99 0 0 -105z m2285
97 c6 -4 9 -47 7 -104 l-3 -98 -105 0 -104 0 0 98 c0 54 3 102 7 105 9 9 185
9 198 -1z m215 -307 l0 -105 -100 0 -100 0 0 105 0 105 100 0 100 0 0 -105z"/>
<path d="M1120 1345 l0 -104 -102 -3 -103 -3 -2 -199 c-1 -109 -4 -201 -7
-204 -3 -3 -50 -6 -103 -6 l-98 -1 -3 -107 -3 -108 -99 0 -100 0 0 -100 0
-100 -105 0 -105 0 0 -99 c0 -63 -4 -102 -11 -107 -6 -4 -54 -6 -105 -5 l-94
2 0 -100 0 -101 730 0 730 0 0 310 0 310 100 0 100 0 0 205 0 205 -207 2 -208
3 -3 208 -2 207 -100 0 -100 0 0 -105z"/>
</g>
</svg>
